<mxfile host="app.diagrams.net" agent="Mozilla/5.0 (Windows NT 10.0; Win64; x64) AppleWebKit/537.36 (KHTML, like Gecko) Chrome/137.0.0.0 Safari/537.36" version="27.1.5">
  <diagram name="Page-1" id="0qWDSgFs80WIMwy3RJWW">
    <mxGraphModel dx="2153" dy="1803" grid="1" gridSize="10" guides="1" tooltips="1" connect="1" arrows="1" fold="1" page="1" pageScale="1" pageWidth="850" pageHeight="1100" math="0" shadow="0">
      <root>
        <mxCell id="0" />
        <mxCell id="1" parent="0" />
        <mxCell id="a5ncfWpH2qJiBCh_mk9J-135" value="" style="endArrow=classic;html=1;rounded=0;exitX=0;exitY=1;exitDx=0;exitDy=0;entryX=1;entryY=1;entryDx=0;entryDy=0;" edge="1" parent="1" source="a5ncfWpH2qJiBCh_mk9J-129" target="a5ncfWpH2qJiBCh_mk9J-4">
          <mxGeometry width="50" height="50" relative="1" as="geometry">
            <mxPoint x="560" y="90" as="sourcePoint" />
            <mxPoint x="610" y="40" as="targetPoint" />
          </mxGeometry>
        </mxCell>
        <mxCell id="a5ncfWpH2qJiBCh_mk9J-113" value="" style="endArrow=classic;html=1;rounded=0;exitX=0.5;exitY=1;exitDx=0;exitDy=0;entryX=0.5;entryY=0;entryDx=0;entryDy=0;" edge="1" parent="1" source="a5ncfWpH2qJiBCh_mk9J-91" target="a5ncfWpH2qJiBCh_mk9J-4">
          <mxGeometry width="50" height="50" relative="1" as="geometry">
            <mxPoint x="410" y="-20" as="sourcePoint" />
            <mxPoint x="460" y="-70" as="targetPoint" />
          </mxGeometry>
        </mxCell>
        <mxCell id="a5ncfWpH2qJiBCh_mk9J-40" value="" style="endArrow=classic;html=1;rounded=0;exitX=0;exitY=0.25;exitDx=0;exitDy=0;entryX=1;entryY=0.5;entryDx=0;entryDy=0;" edge="1" parent="1" source="a5ncfWpH2qJiBCh_mk9J-25" target="a5ncfWpH2qJiBCh_mk9J-31">
          <mxGeometry width="50" height="50" relative="1" as="geometry">
            <mxPoint x="550" y="300" as="sourcePoint" />
            <mxPoint x="600" y="250" as="targetPoint" />
          </mxGeometry>
        </mxCell>
        <mxCell id="a5ncfWpH2qJiBCh_mk9J-1" value="KATEGORIJA" style="rounded=0;whiteSpace=wrap;html=1;" vertex="1" parent="1">
          <mxGeometry x="120" y="250" width="100" height="40" as="geometry" />
        </mxCell>
        <mxCell id="a5ncfWpH2qJiBCh_mk9J-2" value="ID" style="ellipse;whiteSpace=wrap;html=1;" vertex="1" parent="1">
          <mxGeometry x="20" y="200" width="60" height="30" as="geometry" />
        </mxCell>
        <mxCell id="a5ncfWpH2qJiBCh_mk9J-3" value="" style="endArrow=classic;html=1;rounded=0;exitX=0;exitY=0;exitDx=0;exitDy=0;" edge="1" parent="1" source="a5ncfWpH2qJiBCh_mk9J-1" target="a5ncfWpH2qJiBCh_mk9J-2">
          <mxGeometry width="50" height="50" relative="1" as="geometry">
            <mxPoint x="440" y="320" as="sourcePoint" />
            <mxPoint x="490" y="270" as="targetPoint" />
          </mxGeometry>
        </mxCell>
        <mxCell id="a5ncfWpH2qJiBCh_mk9J-4" value="OBAVIJEST" style="rounded=0;whiteSpace=wrap;html=1;" vertex="1" parent="1">
          <mxGeometry x="120" y="100" width="100" height="40" as="geometry" />
        </mxCell>
        <mxCell id="a5ncfWpH2qJiBCh_mk9J-6" value="IMA" style="rhombus;whiteSpace=wrap;html=1;" vertex="1" parent="1">
          <mxGeometry x="145" y="170" width="50" height="50" as="geometry" />
        </mxCell>
        <mxCell id="a5ncfWpH2qJiBCh_mk9J-9" value="" style="endArrow=none;html=1;rounded=0;exitX=0.5;exitY=0;exitDx=0;exitDy=0;entryX=0.5;entryY=1;entryDx=0;entryDy=0;" edge="1" parent="1" source="a5ncfWpH2qJiBCh_mk9J-1" target="a5ncfWpH2qJiBCh_mk9J-6">
          <mxGeometry width="50" height="50" relative="1" as="geometry">
            <mxPoint x="550" y="300" as="sourcePoint" />
            <mxPoint x="600" y="250" as="targetPoint" />
          </mxGeometry>
        </mxCell>
        <mxCell id="a5ncfWpH2qJiBCh_mk9J-10" value="" style="endArrow=classic;html=1;rounded=0;exitX=0.5;exitY=0;exitDx=0;exitDy=0;entryX=0.5;entryY=1;entryDx=0;entryDy=0;" edge="1" parent="1" source="a5ncfWpH2qJiBCh_mk9J-6" target="a5ncfWpH2qJiBCh_mk9J-4">
          <mxGeometry width="50" height="50" relative="1" as="geometry">
            <mxPoint x="550" y="300" as="sourcePoint" />
            <mxPoint x="600" y="250" as="targetPoint" />
          </mxGeometry>
        </mxCell>
        <mxCell id="a5ncfWpH2qJiBCh_mk9J-11" value="1" style="text;html=1;align=center;verticalAlign=middle;resizable=0;points=[];autosize=1;strokeColor=none;fillColor=none;" vertex="1" parent="1">
          <mxGeometry x="165" y="220" width="30" height="30" as="geometry" />
        </mxCell>
        <mxCell id="a5ncfWpH2qJiBCh_mk9J-12" value="N" style="text;html=1;align=center;verticalAlign=middle;resizable=0;points=[];autosize=1;strokeColor=none;fillColor=none;" vertex="1" parent="1">
          <mxGeometry x="165" y="140" width="30" height="30" as="geometry" />
        </mxCell>
        <mxCell id="a5ncfWpH2qJiBCh_mk9J-13" value="ID" style="ellipse;whiteSpace=wrap;html=1;" vertex="1" parent="1">
          <mxGeometry x="30" y="60" width="60" height="30" as="geometry" />
        </mxCell>
        <mxCell id="a5ncfWpH2qJiBCh_mk9J-16" value="" style="endArrow=classic;html=1;rounded=0;exitX=0;exitY=0;exitDx=0;exitDy=0;entryX=1;entryY=1;entryDx=0;entryDy=0;" edge="1" parent="1" source="a5ncfWpH2qJiBCh_mk9J-4" target="a5ncfWpH2qJiBCh_mk9J-13">
          <mxGeometry width="50" height="50" relative="1" as="geometry">
            <mxPoint x="550" y="300" as="sourcePoint" />
            <mxPoint x="600" y="250" as="targetPoint" />
          </mxGeometry>
        </mxCell>
        <mxCell id="a5ncfWpH2qJiBCh_mk9J-17" value="NASLOV" style="ellipse;whiteSpace=wrap;html=1;" vertex="1" parent="1">
          <mxGeometry x="70" y="25" width="60" height="30" as="geometry" />
        </mxCell>
        <mxCell id="a5ncfWpH2qJiBCh_mk9J-18" value="SADRÅ½AJ" style="ellipse;whiteSpace=wrap;html=1;" vertex="1" parent="1">
          <mxGeometry x="100" y="-5" width="60" height="30" as="geometry" />
        </mxCell>
        <mxCell id="a5ncfWpH2qJiBCh_mk9J-20" value="DATUM&lt;div&gt;OBJAVE&lt;/div&gt;" style="ellipse;whiteSpace=wrap;html=1;" vertex="1" parent="1">
          <mxGeometry x="197.5" y="25" width="65" height="40" as="geometry" />
        </mxCell>
        <mxCell id="a5ncfWpH2qJiBCh_mk9J-21" value="" style="endArrow=classic;html=1;rounded=0;exitX=0.25;exitY=0;exitDx=0;exitDy=0;entryX=0.5;entryY=1;entryDx=0;entryDy=0;" edge="1" parent="1" source="a5ncfWpH2qJiBCh_mk9J-4" target="a5ncfWpH2qJiBCh_mk9J-17">
          <mxGeometry width="50" height="50" relative="1" as="geometry">
            <mxPoint x="550" y="300" as="sourcePoint" />
            <mxPoint x="600" y="250" as="targetPoint" />
          </mxGeometry>
        </mxCell>
        <mxCell id="a5ncfWpH2qJiBCh_mk9J-22" value="" style="endArrow=classic;html=1;rounded=0;entryX=0.5;entryY=1;entryDx=0;entryDy=0;exitX=0.25;exitY=0;exitDx=0;exitDy=0;" edge="1" parent="1" source="a5ncfWpH2qJiBCh_mk9J-4" target="a5ncfWpH2qJiBCh_mk9J-18">
          <mxGeometry width="50" height="50" relative="1" as="geometry">
            <mxPoint x="160" y="80" as="sourcePoint" />
            <mxPoint x="110" y="65" as="targetPoint" />
          </mxGeometry>
        </mxCell>
        <mxCell id="a5ncfWpH2qJiBCh_mk9J-23" value="" style="endArrow=classic;html=1;rounded=0;exitX=0.75;exitY=0;exitDx=0;exitDy=0;entryX=0;entryY=1;entryDx=0;entryDy=0;" edge="1" parent="1" source="a5ncfWpH2qJiBCh_mk9J-4" target="a5ncfWpH2qJiBCh_mk9J-20">
          <mxGeometry width="50" height="50" relative="1" as="geometry">
            <mxPoint x="550" y="300" as="sourcePoint" />
            <mxPoint x="600" y="250" as="targetPoint" />
          </mxGeometry>
        </mxCell>
        <mxCell id="a5ncfWpH2qJiBCh_mk9J-25" value="KORISNIK" style="rounded=0;whiteSpace=wrap;html=1;" vertex="1" parent="1">
          <mxGeometry x="425" y="100" width="100" height="40" as="geometry" />
        </mxCell>
        <mxCell id="a5ncfWpH2qJiBCh_mk9J-28" value="" style="endArrow=classic;html=1;rounded=0;exitX=0;exitY=0.5;exitDx=0;exitDy=0;entryX=1;entryY=0.5;entryDx=0;entryDy=0;" edge="1" parent="1" source="a5ncfWpH2qJiBCh_mk9J-27" target="a5ncfWpH2qJiBCh_mk9J-4">
          <mxGeometry width="50" height="50" relative="1" as="geometry">
            <mxPoint x="550" y="300" as="sourcePoint" />
            <mxPoint x="600" y="250" as="targetPoint" />
          </mxGeometry>
        </mxCell>
        <mxCell id="a5ncfWpH2qJiBCh_mk9J-29" value="N" style="text;html=1;align=center;verticalAlign=middle;resizable=0;points=[];autosize=1;strokeColor=none;fillColor=none;" vertex="1" parent="1">
          <mxGeometry x="215" y="88" width="30" height="30" as="geometry" />
        </mxCell>
        <mxCell id="a5ncfWpH2qJiBCh_mk9J-30" value="N" style="text;html=1;align=center;verticalAlign=middle;resizable=0;points=[];autosize=1;strokeColor=none;fillColor=none;" vertex="1" parent="1">
          <mxGeometry x="395" y="90" width="30" height="30" as="geometry" />
        </mxCell>
        <mxCell id="a5ncfWpH2qJiBCh_mk9J-31" value="ID" style="ellipse;whiteSpace=wrap;html=1;" vertex="1" parent="1">
          <mxGeometry x="315" y="60" width="60" height="30" as="geometry" />
        </mxCell>
        <mxCell id="a5ncfWpH2qJiBCh_mk9J-32" value="IME" style="ellipse;whiteSpace=wrap;html=1;" vertex="1" parent="1">
          <mxGeometry x="365" y="40" width="60" height="30" as="geometry" />
        </mxCell>
        <mxCell id="a5ncfWpH2qJiBCh_mk9J-33" value="PREZIME" style="ellipse;whiteSpace=wrap;html=1;" vertex="1" parent="1">
          <mxGeometry x="415" y="20" width="60" height="30" as="geometry" />
        </mxCell>
        <mxCell id="a5ncfWpH2qJiBCh_mk9J-34" value="LOZINKA" style="ellipse;whiteSpace=wrap;html=1;" vertex="1" parent="1">
          <mxGeometry x="480" y="20" width="60" height="30" as="geometry" />
        </mxCell>
        <mxCell id="a5ncfWpH2qJiBCh_mk9J-35" value="TELEFON" style="ellipse;whiteSpace=wrap;html=1;" vertex="1" parent="1">
          <mxGeometry x="580" y="80" width="60" height="30" as="geometry" />
        </mxCell>
        <mxCell id="a5ncfWpH2qJiBCh_mk9J-36" value="DATUM&lt;div&gt;ROÄENJA&lt;/div&gt;" style="ellipse;whiteSpace=wrap;html=1;" vertex="1" parent="1">
          <mxGeometry x="530" y="40" width="70" height="40" as="geometry" />
        </mxCell>
        <mxCell id="a5ncfWpH2qJiBCh_mk9J-27" value="PREGLEDA" style="rhombus;whiteSpace=wrap;html=1;" vertex="1" parent="1">
          <mxGeometry x="275" y="90" width="80" height="60" as="geometry" />
        </mxCell>
        <mxCell id="a5ncfWpH2qJiBCh_mk9J-39" value="" style="endArrow=none;html=1;rounded=0;exitX=0;exitY=0.5;exitDx=0;exitDy=0;entryX=1;entryY=0.5;entryDx=0;entryDy=0;" edge="1" parent="1" source="a5ncfWpH2qJiBCh_mk9J-25" target="a5ncfWpH2qJiBCh_mk9J-27">
          <mxGeometry width="50" height="50" relative="1" as="geometry">
            <mxPoint x="550" y="300" as="sourcePoint" />
            <mxPoint x="600" y="250" as="targetPoint" />
          </mxGeometry>
        </mxCell>
        <mxCell id="a5ncfWpH2qJiBCh_mk9J-41" value="" style="endArrow=classic;html=1;rounded=0;exitX=0;exitY=0;exitDx=0;exitDy=0;entryX=1;entryY=1;entryDx=0;entryDy=0;" edge="1" parent="1" source="a5ncfWpH2qJiBCh_mk9J-25" target="a5ncfWpH2qJiBCh_mk9J-32">
          <mxGeometry width="50" height="50" relative="1" as="geometry">
            <mxPoint x="550" y="300" as="sourcePoint" />
            <mxPoint x="600" y="250" as="targetPoint" />
          </mxGeometry>
        </mxCell>
        <mxCell id="a5ncfWpH2qJiBCh_mk9J-42" value="" style="endArrow=classic;html=1;rounded=0;entryX=0.5;entryY=1;entryDx=0;entryDy=0;exitX=0.25;exitY=0;exitDx=0;exitDy=0;" edge="1" parent="1" source="a5ncfWpH2qJiBCh_mk9J-25" target="a5ncfWpH2qJiBCh_mk9J-33">
          <mxGeometry width="50" height="50" relative="1" as="geometry">
            <mxPoint x="439" y="100" as="sourcePoint" />
            <mxPoint x="600" y="250" as="targetPoint" />
          </mxGeometry>
        </mxCell>
        <mxCell id="a5ncfWpH2qJiBCh_mk9J-43" value="" style="endArrow=classic;html=1;rounded=0;exitX=0.5;exitY=0;exitDx=0;exitDy=0;entryX=0;entryY=1;entryDx=0;entryDy=0;" edge="1" parent="1" source="a5ncfWpH2qJiBCh_mk9J-25" target="a5ncfWpH2qJiBCh_mk9J-34">
          <mxGeometry width="50" height="50" relative="1" as="geometry">
            <mxPoint x="550" y="300" as="sourcePoint" />
            <mxPoint x="600" y="250" as="targetPoint" />
          </mxGeometry>
        </mxCell>
        <mxCell id="a5ncfWpH2qJiBCh_mk9J-44" value="" style="endArrow=classic;html=1;rounded=0;exitX=0.75;exitY=0;exitDx=0;exitDy=0;entryX=0;entryY=0.5;entryDx=0;entryDy=0;" edge="1" parent="1" source="a5ncfWpH2qJiBCh_mk9J-25" target="a5ncfWpH2qJiBCh_mk9J-36">
          <mxGeometry width="50" height="50" relative="1" as="geometry">
            <mxPoint x="550" y="300" as="sourcePoint" />
            <mxPoint x="600" y="250" as="targetPoint" />
          </mxGeometry>
        </mxCell>
        <mxCell id="a5ncfWpH2qJiBCh_mk9J-45" value="" style="endArrow=classic;html=1;rounded=0;exitX=1;exitY=0;exitDx=0;exitDy=0;entryX=0;entryY=0.5;entryDx=0;entryDy=0;" edge="1" parent="1" source="a5ncfWpH2qJiBCh_mk9J-25" target="a5ncfWpH2qJiBCh_mk9J-35">
          <mxGeometry width="50" height="50" relative="1" as="geometry">
            <mxPoint x="550" y="300" as="sourcePoint" />
            <mxPoint x="600" y="250" as="targetPoint" />
          </mxGeometry>
        </mxCell>
        <mxCell id="a5ncfWpH2qJiBCh_mk9J-46" value="" style="endArrow=classic;html=1;rounded=0;exitX=1;exitY=0.5;exitDx=0;exitDy=0;entryX=0;entryY=0.5;entryDx=0;entryDy=0;" edge="1" parent="1" source="a5ncfWpH2qJiBCh_mk9J-48" target="a5ncfWpH2qJiBCh_mk9J-47">
          <mxGeometry width="50" height="50" relative="1" as="geometry">
            <mxPoint x="550" y="300" as="sourcePoint" />
            <mxPoint x="780" y="120" as="targetPoint" />
          </mxGeometry>
        </mxCell>
        <mxCell id="a5ncfWpH2qJiBCh_mk9J-47" value="HODOÄAÅ ÄE" style="rounded=0;whiteSpace=wrap;html=1;" vertex="1" parent="1">
          <mxGeometry x="800" y="100" width="100" height="40" as="geometry" />
        </mxCell>
        <mxCell id="a5ncfWpH2qJiBCh_mk9J-48" value="&lt;div&gt;PREGLEDA&amp;nbsp;&lt;/div&gt;" style="rhombus;whiteSpace=wrap;html=1;" vertex="1" parent="1">
          <mxGeometry x="630" y="90" width="90" height="60" as="geometry" />
        </mxCell>
        <mxCell id="a5ncfWpH2qJiBCh_mk9J-51" value="" style="endArrow=none;html=1;rounded=0;exitX=1;exitY=0.5;exitDx=0;exitDy=0;" edge="1" parent="1" source="a5ncfWpH2qJiBCh_mk9J-25">
          <mxGeometry width="50" height="50" relative="1" as="geometry">
            <mxPoint x="550" y="300" as="sourcePoint" />
            <mxPoint x="630" y="120" as="targetPoint" />
          </mxGeometry>
        </mxCell>
        <mxCell id="a5ncfWpH2qJiBCh_mk9J-52" value="N" style="text;html=1;align=center;verticalAlign=middle;resizable=0;points=[];autosize=1;strokeColor=none;fillColor=none;" vertex="1" parent="1">
          <mxGeometry x="525" y="98" width="30" height="30" as="geometry" />
        </mxCell>
        <mxCell id="a5ncfWpH2qJiBCh_mk9J-53" value="N" style="text;html=1;align=center;verticalAlign=middle;resizable=0;points=[];autosize=1;strokeColor=none;fillColor=none;" vertex="1" parent="1">
          <mxGeometry x="765" y="98" width="30" height="30" as="geometry" />
        </mxCell>
        <mxCell id="a5ncfWpH2qJiBCh_mk9J-54" value="ID" style="ellipse;whiteSpace=wrap;html=1;" vertex="1" parent="1">
          <mxGeometry x="690" y="60" width="60" height="30" as="geometry" />
        </mxCell>
        <mxCell id="a5ncfWpH2qJiBCh_mk9J-55" value="NAZIV" style="ellipse;whiteSpace=wrap;html=1;" vertex="1" parent="1">
          <mxGeometry x="710" y="25" width="60" height="30" as="geometry" />
        </mxCell>
        <mxCell id="a5ncfWpH2qJiBCh_mk9J-56" value="MAX. BROJ PUTNIKA" style="ellipse;whiteSpace=wrap;html=1;" vertex="1" parent="1">
          <mxGeometry x="1030" y="45" width="80" height="30" as="geometry" />
        </mxCell>
        <mxCell id="a5ncfWpH2qJiBCh_mk9J-57" value="DATUM&lt;div&gt;POLASKA&lt;/div&gt;" style="ellipse;whiteSpace=wrap;html=1;" vertex="1" parent="1">
          <mxGeometry x="770" width="60" height="40" as="geometry" />
        </mxCell>
        <mxCell id="a5ncfWpH2qJiBCh_mk9J-59" value="CIJENA" style="ellipse;whiteSpace=wrap;html=1;" vertex="1" parent="1">
          <mxGeometry x="1010" y="10" width="60" height="30" as="geometry" />
        </mxCell>
        <mxCell id="a5ncfWpH2qJiBCh_mk9J-60" value="DATUM POVRATKA" style="ellipse;whiteSpace=wrap;html=1;" vertex="1" parent="1">
          <mxGeometry x="860" y="-45" width="70" height="40" as="geometry" />
        </mxCell>
        <mxCell id="a5ncfWpH2qJiBCh_mk9J-61" value="MJESTO&lt;div&gt;ODREDIÅ TA&lt;/div&gt;" style="ellipse;whiteSpace=wrap;html=1;" vertex="1" parent="1">
          <mxGeometry x="920" y="-5" width="80" height="40" as="geometry" />
        </mxCell>
        <mxCell id="a5ncfWpH2qJiBCh_mk9J-63" value="" style="endArrow=classic;html=1;rounded=0;exitX=0;exitY=0;exitDx=0;exitDy=0;entryX=1;entryY=0.5;entryDx=0;entryDy=0;" edge="1" parent="1" source="a5ncfWpH2qJiBCh_mk9J-47" target="a5ncfWpH2qJiBCh_mk9J-54">
          <mxGeometry width="50" height="50" relative="1" as="geometry">
            <mxPoint x="610" y="310" as="sourcePoint" />
            <mxPoint x="660" y="260" as="targetPoint" />
          </mxGeometry>
        </mxCell>
        <mxCell id="a5ncfWpH2qJiBCh_mk9J-64" value="" style="endArrow=classic;html=1;rounded=0;entryX=0.744;entryY=0.875;entryDx=0;entryDy=0;entryPerimeter=0;" edge="1" parent="1" target="a5ncfWpH2qJiBCh_mk9J-55">
          <mxGeometry width="50" height="50" relative="1" as="geometry">
            <mxPoint x="810" y="100" as="sourcePoint" />
            <mxPoint x="760" y="55" as="targetPoint" />
          </mxGeometry>
        </mxCell>
        <mxCell id="a5ncfWpH2qJiBCh_mk9J-65" value="" style="endArrow=classic;html=1;rounded=0;entryX=0.5;entryY=1;entryDx=0;entryDy=0;exitX=0.25;exitY=0;exitDx=0;exitDy=0;" edge="1" parent="1" source="a5ncfWpH2qJiBCh_mk9J-47" target="a5ncfWpH2qJiBCh_mk9J-57">
          <mxGeometry width="50" height="50" relative="1" as="geometry">
            <mxPoint x="820" y="60" as="sourcePoint" />
            <mxPoint x="765" y="11" as="targetPoint" />
          </mxGeometry>
        </mxCell>
        <mxCell id="a5ncfWpH2qJiBCh_mk9J-66" value="" style="endArrow=classic;html=1;rounded=0;entryX=0;entryY=1;entryDx=0;entryDy=0;exitX=0.5;exitY=0;exitDx=0;exitDy=0;" edge="1" parent="1" source="a5ncfWpH2qJiBCh_mk9J-47" target="a5ncfWpH2qJiBCh_mk9J-60">
          <mxGeometry width="50" height="50" relative="1" as="geometry">
            <mxPoint x="840" y="70" as="sourcePoint" />
            <mxPoint x="785" y="21" as="targetPoint" />
          </mxGeometry>
        </mxCell>
        <mxCell id="a5ncfWpH2qJiBCh_mk9J-67" value="" style="endArrow=classic;html=1;rounded=0;entryX=0.048;entryY=0.81;entryDx=0;entryDy=0;entryPerimeter=0;exitX=0.75;exitY=0;exitDx=0;exitDy=0;" edge="1" parent="1" source="a5ncfWpH2qJiBCh_mk9J-47" target="a5ncfWpH2qJiBCh_mk9J-61">
          <mxGeometry width="50" height="50" relative="1" as="geometry">
            <mxPoint x="870" y="70" as="sourcePoint" />
            <mxPoint x="815" y="21" as="targetPoint" />
          </mxGeometry>
        </mxCell>
        <mxCell id="a5ncfWpH2qJiBCh_mk9J-68" value="" style="endArrow=classic;html=1;rounded=0;entryX=0;entryY=0.5;entryDx=0;entryDy=0;exitX=1;exitY=0;exitDx=0;exitDy=0;" edge="1" parent="1" source="a5ncfWpH2qJiBCh_mk9J-47" target="a5ncfWpH2qJiBCh_mk9J-59">
          <mxGeometry width="50" height="50" relative="1" as="geometry">
            <mxPoint x="910" y="70" as="sourcePoint" />
            <mxPoint x="855" y="21" as="targetPoint" />
          </mxGeometry>
        </mxCell>
        <mxCell id="a5ncfWpH2qJiBCh_mk9J-69" value="" style="endArrow=classic;html=1;rounded=0;entryX=0;entryY=0.5;entryDx=0;entryDy=0;exitX=1;exitY=0;exitDx=0;exitDy=0;" edge="1" parent="1" source="a5ncfWpH2qJiBCh_mk9J-47" target="a5ncfWpH2qJiBCh_mk9J-56">
          <mxGeometry width="50" height="50" relative="1" as="geometry">
            <mxPoint x="940" y="160" as="sourcePoint" />
            <mxPoint x="885" y="111" as="targetPoint" />
          </mxGeometry>
        </mxCell>
        <mxCell id="a5ncfWpH2qJiBCh_mk9J-58" value="TRENUTNI BROJ PRIJAVA" style="ellipse;whiteSpace=wrap;html=1;" vertex="1" parent="1">
          <mxGeometry x="950" y="70" width="90" height="40" as="geometry" />
        </mxCell>
        <mxCell id="a5ncfWpH2qJiBCh_mk9J-70" value="" style="endArrow=classic;html=1;rounded=0;entryX=0;entryY=0.5;entryDx=0;entryDy=0;exitX=1;exitY=0;exitDx=0;exitDy=0;" edge="1" parent="1" source="a5ncfWpH2qJiBCh_mk9J-47" target="a5ncfWpH2qJiBCh_mk9J-58">
          <mxGeometry width="50" height="50" relative="1" as="geometry">
            <mxPoint x="920" y="180" as="sourcePoint" />
            <mxPoint x="865" y="131" as="targetPoint" />
          </mxGeometry>
        </mxCell>
        <mxCell id="a5ncfWpH2qJiBCh_mk9J-71" value="PRIJAVA&lt;div&gt;HODOÄAÅ ÄA&lt;/div&gt;" style="rounded=0;whiteSpace=wrap;html=1;" vertex="1" parent="1">
          <mxGeometry x="432.5" y="-200" width="95" height="40" as="geometry" />
        </mxCell>
        <mxCell id="a5ncfWpH2qJiBCh_mk9J-76" value="" style="endArrow=classic;html=1;rounded=0;exitX=0.5;exitY=0;exitDx=0;exitDy=0;" edge="1" parent="1" source="a5ncfWpH2qJiBCh_mk9J-72" target="a5ncfWpH2qJiBCh_mk9J-71">
          <mxGeometry width="50" height="50" relative="1" as="geometry">
            <mxPoint x="670" y="180" as="sourcePoint" />
            <mxPoint x="480" y="-5" as="targetPoint" />
          </mxGeometry>
        </mxCell>
        <mxCell id="a5ncfWpH2qJiBCh_mk9J-77" value="1" style="text;html=1;align=center;verticalAlign=middle;resizable=0;points=[];autosize=1;strokeColor=none;fillColor=none;" vertex="1" parent="1">
          <mxGeometry x="450" y="75" width="30" height="30" as="geometry" />
        </mxCell>
        <mxCell id="a5ncfWpH2qJiBCh_mk9J-78" value="N" style="text;html=1;align=center;verticalAlign=middle;resizable=0;points=[];autosize=1;strokeColor=none;fillColor=none;" vertex="1" parent="1">
          <mxGeometry x="450" y="-160" width="30" height="30" as="geometry" />
        </mxCell>
        <mxCell id="a5ncfWpH2qJiBCh_mk9J-79" value="ID" style="ellipse;whiteSpace=wrap;html=1;" vertex="1" parent="1">
          <mxGeometry x="480" y="-300" width="60" height="30" as="geometry" />
        </mxCell>
        <mxCell id="a5ncfWpH2qJiBCh_mk9J-80" value="STATUS" style="ellipse;whiteSpace=wrap;html=1;" vertex="1" parent="1">
          <mxGeometry x="345" y="-270" width="60" height="30" as="geometry" />
        </mxCell>
        <mxCell id="a5ncfWpH2qJiBCh_mk9J-81" value="DATUM&lt;div&gt;PRIJAVE&lt;/div&gt;" style="ellipse;whiteSpace=wrap;html=1;" vertex="1" parent="1">
          <mxGeometry x="405" y="-290" width="70" height="30" as="geometry" />
        </mxCell>
        <mxCell id="a5ncfWpH2qJiBCh_mk9J-82" value="BROJ PUTNIKA" style="ellipse;whiteSpace=wrap;html=1;" vertex="1" parent="1">
          <mxGeometry x="320" y="-240" width="60" height="30" as="geometry" />
        </mxCell>
        <mxCell id="a5ncfWpH2qJiBCh_mk9J-83" value="KONTAKT" style="ellipse;whiteSpace=wrap;html=1;" vertex="1" parent="1">
          <mxGeometry x="530" y="-270" width="60" height="30" as="geometry" />
        </mxCell>
        <mxCell id="a5ncfWpH2qJiBCh_mk9J-84" value="" style="endArrow=classic;html=1;rounded=0;exitX=0.75;exitY=0;exitDx=0;exitDy=0;entryX=0.5;entryY=1;entryDx=0;entryDy=0;" edge="1" parent="1" source="a5ncfWpH2qJiBCh_mk9J-71" target="a5ncfWpH2qJiBCh_mk9J-79">
          <mxGeometry width="50" height="50" relative="1" as="geometry">
            <mxPoint x="670" y="180" as="sourcePoint" />
            <mxPoint x="720" y="130" as="targetPoint" />
          </mxGeometry>
        </mxCell>
        <mxCell id="a5ncfWpH2qJiBCh_mk9J-85" value="" style="endArrow=classic;html=1;rounded=0;exitX=0.5;exitY=0;exitDx=0;exitDy=0;entryX=1;entryY=1;entryDx=0;entryDy=0;" edge="1" parent="1" source="a5ncfWpH2qJiBCh_mk9J-71" target="a5ncfWpH2qJiBCh_mk9J-81">
          <mxGeometry width="50" height="50" relative="1" as="geometry">
            <mxPoint x="670" y="180" as="sourcePoint" />
            <mxPoint x="720" y="130" as="targetPoint" />
            <Array as="points" />
          </mxGeometry>
        </mxCell>
        <mxCell id="a5ncfWpH2qJiBCh_mk9J-86" value="" style="endArrow=classic;html=1;rounded=0;entryX=1;entryY=0.5;entryDx=0;entryDy=0;exitX=0;exitY=0.25;exitDx=0;exitDy=0;" edge="1" parent="1" source="a5ncfWpH2qJiBCh_mk9J-71" target="a5ncfWpH2qJiBCh_mk9J-80">
          <mxGeometry width="50" height="50" relative="1" as="geometry">
            <mxPoint x="420" y="260" as="sourcePoint" />
            <mxPoint x="390" y="245" as="targetPoint" />
            <Array as="points" />
          </mxGeometry>
        </mxCell>
        <mxCell id="a5ncfWpH2qJiBCh_mk9J-87" value="" style="endArrow=classic;html=1;rounded=0;exitX=0;exitY=0.5;exitDx=0;exitDy=0;entryX=1;entryY=0.5;entryDx=0;entryDy=0;" edge="1" parent="1" source="a5ncfWpH2qJiBCh_mk9J-71" target="a5ncfWpH2qJiBCh_mk9J-82">
          <mxGeometry width="50" height="50" relative="1" as="geometry">
            <mxPoint x="670" y="180" as="sourcePoint" />
            <mxPoint x="720" y="130" as="targetPoint" />
          </mxGeometry>
        </mxCell>
        <mxCell id="a5ncfWpH2qJiBCh_mk9J-88" value="" style="endArrow=classic;html=1;rounded=0;exitX=1;exitY=0;exitDx=0;exitDy=0;entryX=0.363;entryY=1.02;entryDx=0;entryDy=0;entryPerimeter=0;" edge="1" parent="1" source="a5ncfWpH2qJiBCh_mk9J-71" target="a5ncfWpH2qJiBCh_mk9J-83">
          <mxGeometry width="50" height="50" relative="1" as="geometry">
            <mxPoint x="670" y="180" as="sourcePoint" />
            <mxPoint x="550" y="-280" as="targetPoint" />
          </mxGeometry>
        </mxCell>
        <mxCell id="a5ncfWpH2qJiBCh_mk9J-91" value="DJELATNIK" style="rounded=0;whiteSpace=wrap;html=1;" vertex="1" parent="1">
          <mxGeometry x="120" y="-200" width="100" height="40" as="geometry" />
        </mxCell>
        <mxCell id="a5ncfWpH2qJiBCh_mk9J-101" value="ID" style="ellipse;whiteSpace=wrap;html=1;" vertex="1" parent="1">
          <mxGeometry x="50" y="-270" width="60" height="30" as="geometry" />
        </mxCell>
        <mxCell id="a5ncfWpH2qJiBCh_mk9J-102" value="PREZIME" style="ellipse;whiteSpace=wrap;html=1;" vertex="1" parent="1">
          <mxGeometry x="145" y="-300" width="60" height="30" as="geometry" />
        </mxCell>
        <mxCell id="a5ncfWpH2qJiBCh_mk9J-103" value="ULOGA" style="ellipse;whiteSpace=wrap;html=1;" vertex="1" parent="1">
          <mxGeometry x="25" y="-220" width="60" height="30" as="geometry" />
        </mxCell>
        <mxCell id="a5ncfWpH2qJiBCh_mk9J-104" value="KONTAKT" style="ellipse;whiteSpace=wrap;html=1;" vertex="1" parent="1">
          <mxGeometry x="185" y="-260" width="60" height="30" as="geometry" />
        </mxCell>
        <mxCell id="a5ncfWpH2qJiBCh_mk9J-105" value="IME" style="ellipse;whiteSpace=wrap;html=1;" vertex="1" parent="1">
          <mxGeometry x="85" y="-330" width="60" height="30" as="geometry" />
        </mxCell>
        <mxCell id="a5ncfWpH2qJiBCh_mk9J-106" value="DATUM&lt;div&gt;ZAPOSLENJA&lt;/div&gt;" style="ellipse;whiteSpace=wrap;html=1;" vertex="1" parent="1">
          <mxGeometry x="230" y="-290" width="90" height="40" as="geometry" />
        </mxCell>
        <mxCell id="a5ncfWpH2qJiBCh_mk9J-107" value="" style="endArrow=classic;html=1;rounded=0;exitX=0.134;exitY=-0.035;exitDx=0;exitDy=0;entryX=1;entryY=0.5;entryDx=0;entryDy=0;exitPerimeter=0;" edge="1" parent="1" source="a5ncfWpH2qJiBCh_mk9J-91" target="a5ncfWpH2qJiBCh_mk9J-101">
          <mxGeometry width="50" height="50" relative="1" as="geometry">
            <mxPoint x="410" y="150" as="sourcePoint" />
            <mxPoint x="460" y="100" as="targetPoint" />
          </mxGeometry>
        </mxCell>
        <mxCell id="a5ncfWpH2qJiBCh_mk9J-108" value="" style="endArrow=classic;html=1;rounded=0;exitX=0;exitY=1;exitDx=0;exitDy=0;entryX=1;entryY=0.5;entryDx=0;entryDy=0;" edge="1" parent="1" source="a5ncfWpH2qJiBCh_mk9J-91" target="a5ncfWpH2qJiBCh_mk9J-103">
          <mxGeometry width="50" height="50" relative="1" as="geometry">
            <mxPoint x="410" y="150" as="sourcePoint" />
            <mxPoint x="460" y="100" as="targetPoint" />
          </mxGeometry>
        </mxCell>
        <mxCell id="a5ncfWpH2qJiBCh_mk9J-109" value="" style="endArrow=classic;html=1;rounded=0;exitX=0.25;exitY=0;exitDx=0;exitDy=0;entryX=1;entryY=1;entryDx=0;entryDy=0;" edge="1" parent="1" source="a5ncfWpH2qJiBCh_mk9J-91" target="a5ncfWpH2qJiBCh_mk9J-105">
          <mxGeometry width="50" height="50" relative="1" as="geometry">
            <mxPoint x="410" y="150" as="sourcePoint" />
            <mxPoint x="460" y="100" as="targetPoint" />
          </mxGeometry>
        </mxCell>
        <mxCell id="a5ncfWpH2qJiBCh_mk9J-110" value="" style="endArrow=classic;html=1;rounded=0;exitX=0.5;exitY=0;exitDx=0;exitDy=0;entryX=0.5;entryY=1;entryDx=0;entryDy=0;" edge="1" parent="1" source="a5ncfWpH2qJiBCh_mk9J-91" target="a5ncfWpH2qJiBCh_mk9J-102">
          <mxGeometry width="50" height="50" relative="1" as="geometry">
            <mxPoint x="479" y="244" as="sourcePoint" />
            <mxPoint x="470" y="210" as="targetPoint" />
          </mxGeometry>
        </mxCell>
        <mxCell id="a5ncfWpH2qJiBCh_mk9J-111" value="" style="endArrow=classic;html=1;rounded=0;exitX=0.75;exitY=0;exitDx=0;exitDy=0;" edge="1" parent="1" source="a5ncfWpH2qJiBCh_mk9J-91" target="a5ncfWpH2qJiBCh_mk9J-104">
          <mxGeometry width="50" height="50" relative="1" as="geometry">
            <mxPoint x="519" y="254" as="sourcePoint" />
            <mxPoint x="510" y="220" as="targetPoint" />
          </mxGeometry>
        </mxCell>
        <mxCell id="a5ncfWpH2qJiBCh_mk9J-112" value="" style="endArrow=classic;html=1;rounded=0;exitX=1;exitY=0;exitDx=0;exitDy=0;entryX=0.5;entryY=1;entryDx=0;entryDy=0;" edge="1" parent="1" source="a5ncfWpH2qJiBCh_mk9J-91" target="a5ncfWpH2qJiBCh_mk9J-106">
          <mxGeometry width="50" height="50" relative="1" as="geometry">
            <mxPoint x="559" y="264" as="sourcePoint" />
            <mxPoint x="550" y="230" as="targetPoint" />
          </mxGeometry>
        </mxCell>
        <mxCell id="a5ncfWpH2qJiBCh_mk9J-114" value="UREÄUJE" style="rhombus;whiteSpace=wrap;html=1;" vertex="1" parent="1">
          <mxGeometry x="135" y="-100" width="70" height="50" as="geometry" />
        </mxCell>
        <mxCell id="a5ncfWpH2qJiBCh_mk9J-115" value="1" style="text;html=1;align=center;verticalAlign=middle;resizable=0;points=[];autosize=1;strokeColor=none;fillColor=none;" vertex="1" parent="1">
          <mxGeometry x="165" y="-162" width="30" height="30" as="geometry" />
        </mxCell>
        <mxCell id="a5ncfWpH2qJiBCh_mk9J-116" value="N" style="text;html=1;align=center;verticalAlign=middle;resizable=0;points=[];autosize=1;strokeColor=none;fillColor=none;" vertex="1" parent="1">
          <mxGeometry x="165" y="68" width="30" height="30" as="geometry" />
        </mxCell>
        <mxCell id="a5ncfWpH2qJiBCh_mk9J-117" value="" style="endArrow=classic;html=1;rounded=0;exitX=1;exitY=0.5;exitDx=0;exitDy=0;" edge="1" parent="1" source="a5ncfWpH2qJiBCh_mk9J-91" target="a5ncfWpH2qJiBCh_mk9J-71">
          <mxGeometry width="50" height="50" relative="1" as="geometry">
            <mxPoint x="410" y="-20" as="sourcePoint" />
            <mxPoint x="460" y="-70" as="targetPoint" />
          </mxGeometry>
        </mxCell>
        <mxCell id="a5ncfWpH2qJiBCh_mk9J-118" value="&lt;font style=&quot;font-size: 11px;&quot;&gt;PROVJERAVA&lt;/font&gt;" style="rhombus;whiteSpace=wrap;html=1;" vertex="1" parent="1">
          <mxGeometry x="260" y="-205" width="90" height="50" as="geometry" />
        </mxCell>
        <mxCell id="a5ncfWpH2qJiBCh_mk9J-72" value="&lt;font style=&quot;font-size: 11px;&quot;&gt;PRIJAVLJUJE&lt;/font&gt;&lt;div&gt;&lt;font style=&quot;font-size: 11px;&quot;&gt;HODOÄAÅ ÄE&lt;/font&gt;&lt;/div&gt;" style="rhombus;whiteSpace=wrap;html=1;" vertex="1" parent="1">
          <mxGeometry x="432.5" y="-80" width="95" height="75" as="geometry" />
        </mxCell>
        <mxCell id="a5ncfWpH2qJiBCh_mk9J-120" value="" style="endArrow=none;html=1;rounded=0;entryX=0.5;entryY=1;entryDx=0;entryDy=0;" edge="1" parent="1" target="a5ncfWpH2qJiBCh_mk9J-72">
          <mxGeometry width="50" height="50" relative="1" as="geometry">
            <mxPoint x="474" y="100" as="sourcePoint" />
            <mxPoint x="580" y="-70" as="targetPoint" />
          </mxGeometry>
        </mxCell>
        <mxCell id="a5ncfWpH2qJiBCh_mk9J-121" value="" style="endArrow=none;html=1;rounded=0;exitX=1;exitY=1;exitDx=0;exitDy=0;" edge="1" parent="1" source="a5ncfWpH2qJiBCh_mk9J-91">
          <mxGeometry width="50" height="50" relative="1" as="geometry">
            <mxPoint x="460" y="-40" as="sourcePoint" />
            <mxPoint x="220" y="-120" as="targetPoint" />
          </mxGeometry>
        </mxCell>
        <mxCell id="a5ncfWpH2qJiBCh_mk9J-123" value="" style="endArrow=none;html=1;rounded=0;" edge="1" parent="1">
          <mxGeometry width="50" height="50" relative="1" as="geometry">
            <mxPoint x="220" y="-120" as="sourcePoint" />
            <mxPoint x="850" y="-120" as="targetPoint" />
          </mxGeometry>
        </mxCell>
        <mxCell id="a5ncfWpH2qJiBCh_mk9J-125" value="UREÄUJE" style="rhombus;whiteSpace=wrap;html=1;" vertex="1" parent="1">
          <mxGeometry x="635" y="-162" width="80" height="80" as="geometry" />
        </mxCell>
        <mxCell id="a5ncfWpH2qJiBCh_mk9J-126" value="" style="endArrow=classic;html=1;rounded=0;" edge="1" parent="1">
          <mxGeometry width="50" height="50" relative="1" as="geometry">
            <mxPoint x="850" y="-120" as="sourcePoint" />
            <mxPoint x="850" y="100" as="targetPoint" />
          </mxGeometry>
        </mxCell>
        <mxCell id="a5ncfWpH2qJiBCh_mk9J-127" value="1" style="text;html=1;align=center;verticalAlign=middle;resizable=0;points=[];autosize=1;strokeColor=none;fillColor=none;" vertex="1" parent="1">
          <mxGeometry x="215" y="-160" width="30" height="30" as="geometry" />
        </mxCell>
        <mxCell id="a5ncfWpH2qJiBCh_mk9J-128" value="N" style="text;html=1;align=center;verticalAlign=middle;resizable=0;points=[];autosize=1;strokeColor=none;fillColor=none;" vertex="1" parent="1">
          <mxGeometry x="825" y="68" width="30" height="30" as="geometry" />
        </mxCell>
        <mxCell id="a5ncfWpH2qJiBCh_mk9J-129" value="ADMINISTRATOR" style="rounded=0;whiteSpace=wrap;html=1;" vertex="1" parent="1">
          <mxGeometry x="417.5" y="250" width="115" height="40" as="geometry" />
        </mxCell>
        <mxCell id="a5ncfWpH2qJiBCh_mk9J-132" value="UPRAVLJA" style="rhombus;whiteSpace=wrap;html=1;" vertex="1" parent="1">
          <mxGeometry x="245" y="175" width="85" height="80" as="geometry" />
        </mxCell>
        <mxCell id="a5ncfWpH2qJiBCh_mk9J-136" value="1" style="text;html=1;align=center;verticalAlign=middle;resizable=0;points=[];autosize=1;strokeColor=none;fillColor=none;" vertex="1" parent="1">
          <mxGeometry x="395" y="248" width="30" height="30" as="geometry" />
        </mxCell>
        <mxCell id="a5ncfWpH2qJiBCh_mk9J-137" value="N" style="text;html=1;align=center;verticalAlign=middle;resizable=0;points=[];autosize=1;strokeColor=none;fillColor=none;" vertex="1" parent="1">
          <mxGeometry x="215" y="118" width="30" height="30" as="geometry" />
        </mxCell>
        <mxCell id="a5ncfWpH2qJiBCh_mk9J-138" value="" style="endArrow=classic;html=1;rounded=0;exitX=0.5;exitY=0;exitDx=0;exitDy=0;entryX=0.5;entryY=1;entryDx=0;entryDy=0;" edge="1" parent="1" source="a5ncfWpH2qJiBCh_mk9J-129" target="a5ncfWpH2qJiBCh_mk9J-25">
          <mxGeometry width="50" height="50" relative="1" as="geometry">
            <mxPoint x="560" y="90" as="sourcePoint" />
            <mxPoint x="610" y="40" as="targetPoint" />
          </mxGeometry>
        </mxCell>
        <mxCell id="a5ncfWpH2qJiBCh_mk9J-139" value="UPRAVLJA" style="rhombus;whiteSpace=wrap;html=1;" vertex="1" parent="1">
          <mxGeometry x="435" y="162.5" width="80" height="65" as="geometry" />
        </mxCell>
        <mxCell id="a5ncfWpH2qJiBCh_mk9J-140" value="1" style="text;html=1;align=center;verticalAlign=middle;resizable=0;points=[];autosize=1;strokeColor=none;fillColor=none;" vertex="1" parent="1">
          <mxGeometry x="475" y="218" width="30" height="30" as="geometry" />
        </mxCell>
        <mxCell id="a5ncfWpH2qJiBCh_mk9J-141" value="N" style="text;html=1;align=center;verticalAlign=middle;resizable=0;points=[];autosize=1;strokeColor=none;fillColor=none;" vertex="1" parent="1">
          <mxGeometry x="475" y="138" width="30" height="30" as="geometry" />
        </mxCell>
        <mxCell id="a5ncfWpH2qJiBCh_mk9J-147" value="" style="endArrow=classic;html=1;rounded=0;exitX=0.5;exitY=1;exitDx=0;exitDy=0;edgeStyle=orthogonalEdgeStyle;entryX=0;entryY=0.75;entryDx=0;entryDy=0;" edge="1" parent="1" source="a5ncfWpH2qJiBCh_mk9J-129" target="a5ncfWpH2qJiBCh_mk9J-91">
          <mxGeometry width="50" height="50" relative="1" as="geometry">
            <mxPoint x="479.94" y="320" as="sourcePoint" />
            <mxPoint x="-75" y="-170" as="targetPoint" />
            <Array as="points">
              <mxPoint x="475" y="300" />
              <mxPoint x="-60" y="300" />
              <mxPoint x="-60" y="-170" />
            </Array>
          </mxGeometry>
        </mxCell>
        <mxCell id="a5ncfWpH2qJiBCh_mk9J-148" value="UPRAVLJA" style="rhombus;whiteSpace=wrap;html=1;" vertex="1" parent="1">
          <mxGeometry x="-100" y="20" width="80" height="80" as="geometry" />
        </mxCell>
        <mxCell id="a5ncfWpH2qJiBCh_mk9J-149" value="1" style="text;html=1;align=center;verticalAlign=middle;resizable=0;points=[];autosize=1;strokeColor=none;fillColor=none;" vertex="1" parent="1">
          <mxGeometry x="445" y="298" width="30" height="30" as="geometry" />
        </mxCell>
        <mxCell id="a5ncfWpH2qJiBCh_mk9J-150" value="N" style="text;html=1;align=center;verticalAlign=middle;resizable=0;points=[];autosize=1;strokeColor=none;fillColor=none;" vertex="1" parent="1">
          <mxGeometry x="85" y="-172" width="30" height="30" as="geometry" />
        </mxCell>
        <mxCell id="a5ncfWpH2qJiBCh_mk9J-151" value="" style="endArrow=classic;html=1;rounded=0;exitX=1;exitY=0.5;exitDx=0;exitDy=0;edgeStyle=orthogonalEdgeStyle;entryX=0.5;entryY=1;entryDx=0;entryDy=0;" edge="1" parent="1" source="a5ncfWpH2qJiBCh_mk9J-129" target="a5ncfWpH2qJiBCh_mk9J-47">
          <mxGeometry width="50" height="50" relative="1" as="geometry">
            <mxPoint x="730" y="130" as="sourcePoint" />
            <mxPoint x="830" y="270" as="targetPoint" />
          </mxGeometry>
        </mxCell>
        <mxCell id="a5ncfWpH2qJiBCh_mk9J-152" value="UPRAVLJA" style="rhombus;whiteSpace=wrap;html=1;" vertex="1" parent="1">
          <mxGeometry x="660" y="230" width="80" height="80" as="geometry" />
        </mxCell>
        <mxCell id="a5ncfWpH2qJiBCh_mk9J-153" value="1" style="text;html=1;align=center;verticalAlign=middle;resizable=0;points=[];autosize=1;strokeColor=none;fillColor=none;" vertex="1" parent="1">
          <mxGeometry x="535" y="238" width="30" height="30" as="geometry" />
        </mxCell>
        <mxCell id="a5ncfWpH2qJiBCh_mk9J-154" value="N" style="text;html=1;align=center;verticalAlign=middle;resizable=0;points=[];autosize=1;strokeColor=none;fillColor=none;" vertex="1" parent="1">
          <mxGeometry x="825" y="138" width="30" height="30" as="geometry" />
        </mxCell>
        <mxCell id="a5ncfWpH2qJiBCh_mk9J-155" value="ID" style="ellipse;whiteSpace=wrap;html=1;" vertex="1" parent="1">
          <mxGeometry x="355" y="310" width="60" height="30" as="geometry" />
        </mxCell>
        <mxCell id="a5ncfWpH2qJiBCh_mk9J-156" value="IME" style="ellipse;whiteSpace=wrap;html=1;" vertex="1" parent="1">
          <mxGeometry x="415" y="328" width="60" height="30" as="geometry" />
        </mxCell>
        <mxCell id="a5ncfWpH2qJiBCh_mk9J-157" value="PREZIME" style="ellipse;whiteSpace=wrap;html=1;" vertex="1" parent="1">
          <mxGeometry x="490" y="328" width="60" height="30" as="geometry" />
        </mxCell>
        <mxCell id="a5ncfWpH2qJiBCh_mk9J-158" value="EMAIL" style="ellipse;whiteSpace=wrap;html=1;" vertex="1" parent="1">
          <mxGeometry x="550" y="310" width="60" height="30" as="geometry" />
        </mxCell>
        <mxCell id="a5ncfWpH2qJiBCh_mk9J-161" value="" style="endArrow=classic;html=1;rounded=0;exitX=0;exitY=1;exitDx=0;exitDy=0;entryX=0.5;entryY=0;entryDx=0;entryDy=0;" edge="1" parent="1" source="a5ncfWpH2qJiBCh_mk9J-129" target="a5ncfWpH2qJiBCh_mk9J-155">
          <mxGeometry width="50" height="50" relative="1" as="geometry">
            <mxPoint x="730" y="130" as="sourcePoint" />
            <mxPoint x="780" y="80" as="targetPoint" />
          </mxGeometry>
        </mxCell>
        <mxCell id="a5ncfWpH2qJiBCh_mk9J-162" value="" style="endArrow=classic;html=1;rounded=0;exitX=0.25;exitY=1;exitDx=0;exitDy=0;entryX=0.5;entryY=0;entryDx=0;entryDy=0;" edge="1" parent="1" source="a5ncfWpH2qJiBCh_mk9J-129" target="a5ncfWpH2qJiBCh_mk9J-156">
          <mxGeometry width="50" height="50" relative="1" as="geometry">
            <mxPoint x="730" y="130" as="sourcePoint" />
            <mxPoint x="780" y="80" as="targetPoint" />
          </mxGeometry>
        </mxCell>
        <mxCell id="a5ncfWpH2qJiBCh_mk9J-163" value="" style="endArrow=classic;html=1;rounded=0;exitX=0.75;exitY=1;exitDx=0;exitDy=0;entryX=0.5;entryY=0;entryDx=0;entryDy=0;" edge="1" parent="1" source="a5ncfWpH2qJiBCh_mk9J-129" target="a5ncfWpH2qJiBCh_mk9J-157">
          <mxGeometry width="50" height="50" relative="1" as="geometry">
            <mxPoint x="730" y="130" as="sourcePoint" />
            <mxPoint x="780" y="80" as="targetPoint" />
          </mxGeometry>
        </mxCell>
        <mxCell id="a5ncfWpH2qJiBCh_mk9J-164" value="" style="endArrow=classic;html=1;rounded=0;exitX=1;exitY=1;exitDx=0;exitDy=0;entryX=0;entryY=0;entryDx=0;entryDy=0;" edge="1" parent="1" source="a5ncfWpH2qJiBCh_mk9J-129" target="a5ncfWpH2qJiBCh_mk9J-158">
          <mxGeometry width="50" height="50" relative="1" as="geometry">
            <mxPoint x="730" y="130" as="sourcePoint" />
            <mxPoint x="780" y="80" as="targetPoint" />
          </mxGeometry>
        </mxCell>
        <mxCell id="a5ncfWpH2qJiBCh_mk9J-165" value="1" style="text;html=1;align=center;verticalAlign=middle;resizable=0;points=[];autosize=1;strokeColor=none;fillColor=none;" vertex="1" parent="1">
          <mxGeometry x="215" y="-202" width="30" height="30" as="geometry" />
        </mxCell>
        <mxCell id="a5ncfWpH2qJiBCh_mk9J-166" value="N" style="text;html=1;align=center;verticalAlign=middle;resizable=0;points=[];autosize=1;strokeColor=none;fillColor=none;" vertex="1" parent="1">
          <mxGeometry x="395" y="-202" width="30" height="30" as="geometry" />
        </mxCell>
      </root>
    </mxGraphModel>
  </diagram>
</mxfile>
